<?xml version="1.0" standalone="no"?>
<!DOCTYPE svg PUBLIC "-//W3C//DTD SVG 20010904//EN"
 "http://www.w3.org/TR/2001/REC-SVG-20010904/DTD/svg10.dtd">
<svg version="1.0" xmlns="http://www.w3.org/2000/svg"
 width="16.000000pt" height="16.000000pt" viewBox="0 0 16.000000 16.000000"
 preserveAspectRatio="xMidYMid meet">
<metadata>
Created by potrace 1.11, written by Peter Selinger 2001-2013
</metadata>
<g transform="translate(0.000000,16.000000) scale(0.002286,-0.002286)"
fill="#000000" stroke="none">
<path d="M0 3500 l0 -3500 3500 0 3500 0 0 3500 0 3500 -3500 0 -3500 0 0
-3500z m3252 3194 c257 -53 452 -177 624 -396 l21 -27 130 59 c435 199 853
230 1261 94 493 -163 842 -550 938 -1040 22 -110 25 -351 5 -477 -7 -48 -11
-90 -8 -93 3 -3 36 -9 73 -15 98 -13 147 -34 192 -83 54 -59 84 -142 85 -236
1 -137 -41 -213 -169 -308 l-83 -62 106 -103 c116 -113 172 -186 227 -294 101
-202 106 -424 14 -607 -88 -175 -284 -346 -474 -415 -115 -42 -200 -55 -309
-48 -249 17 -484 167 -663 424 -25 36 -42 51 -52 47 -41 -16 -202 -44 -255
-44 -77 0 -182 23 -249 53 -75 35 -169 126 -206 201 -45 92 -56 176 -36 294 9
54 19 106 22 117 5 19 -4 24 -77 45 -270 78 -490 264 -622 525 -37 75 -76 206
-96 327 -10 60 -21 111 -24 115 -4 3 -42 -4 -84 -16 -98 -29 -209 -29 -315 -2
-94 24 -135 45 -218 109 l-64 50 -22 -36 c-11 -20 -33 -59 -49 -86 -60 -106
-148 -177 -278 -225 l-72 -27 5 -80 c9 -144 4 -368 -9 -424 -51 -220 -133
-372 -276 -516 -195 -195 -444 -303 -774 -334 l-110 -10 -108 -109 c-114 -114
-200 -177 -289 -210 -191 -72 -353 -34 -505 119 -91 91 -134 171 -149 281 -18
123 9 226 94 358 l53 84 -48 101 c-62 131 -114 287 -135 406 -20 117 -15 313
11 410 22 84 81 210 135 291 61 91 229 252 348 333 56 39 102 74 102 78 0 5
-13 40 -29 77 -92 217 -79 425 39 606 78 120 224 242 367 306 123 55 213 74
358 73 181 -1 269 -27 530 -155 l60 -29 195 2 195 3 -118 83 c-64 46 -117 86
-117 89 0 20 71 111 128 165 182 172 485 243 774 182z m-164 -2308 c80 -211
171 -522 213 -734 7 -34 16 -57 20 -50 9 17 89 289 138 472 22 81 42 150 44
153 3 2 10 -10 16 -27 14 -41 94 -174 136 -225 l32 -40 -68 -235 c-56 -193
-104 -344 -164 -515 -4 -11 3 -4 16 15 95 149 165 248 230 330 82 104 168 203
179 208 4 1 34 -15 66 -36 33 -22 80 -52 107 -66 l47 -27 -93 -107 c-183 -211
-291 -373 -402 -597 -64 -130 -115 -268 -115 -313 0 -8 28 12 63 43 110 101
393 273 547 334 14 5 43 17 65 26 36 16 29 6 -75 -101 -297 -310 -468 -589
-588 -964 -69 -217 -77 -264 -63 -377 19 -161 60 -339 112 -498 53 -157 178
-432 201 -439 7 -2 67 -16 133 -31 145 -33 378 -107 569 -182 124 -48 454
-189 465 -199 2 -2 -772 -4 -1720 -4 l-1724 0 150 66 c183 80 436 177 608 233
128 42 396 111 428 111 21 0 22 4 48 145 56 308 75 533 75 895 0 306 -6 412
-40 655 -21 152 -25 165 -113 353 -86 186 -188 370 -264 479 l-50 73 88 82
c48 46 91 84 96 86 11 4 97 -120 182 -263 59 -100 155 -292 229 -455 l15 -35
55 110 c31 61 79 164 107 230 l52 121 -26 169 c-57 376 -144 728 -249 1003
-20 52 -36 97 -36 101 0 4 21 22 48 39 26 17 67 51 92 76 24 25 49 46 56 46 6
0 34 -60 62 -134z"/>
</g>
</svg>
